<?xml version="1.0" encoding="UTF-8" standalone="no"?>
<!-- Created with Inkscape (http://www.inkscape.org/) -->

<svg
   xmlns:dc="http://purl.org/dc/elements/1.1/"
   xmlns:cc="http://creativecommons.org/ns#"
   xmlns:rdf="http://www.w3.org/1999/02/22-rdf-syntax-ns#"
   xmlns:svg="http://www.w3.org/2000/svg"
   xmlns="http://www.w3.org/2000/svg"
   xmlns:sodipodi="http://sodipodi.sourceforge.net/DTD/sodipodi-0.dtd"
   xmlns:inkscape="http://www.inkscape.org/namespaces/inkscape"
   viewBox="0 0 363.966 364.46274"
   width="316"
   height="316"
   id="svg2"
   version="1.1"
   inkscape:version="0.48.3.1 r9886"
   sodipodi:docname="New document 1">
  <defs
     id="defs4" />
  <sodipodi:namedview
     id="base"
     pagecolor="#ffffff"
     bordercolor="#666666"
     borderopacity="1.0"
     inkscape:pageopacity="0.0"
     inkscape:pageshadow="2"
     inkscape:zoom="2.0739726"
     inkscape:cx="115.76547"
     inkscape:cy="187.53158"
     inkscape:document-units="px"
     inkscape:current-layer="layer1"
     showgrid="false"
     fit-margin-top="0"
     fit-margin-left="0"
     fit-margin-right="0"
     fit-margin-bottom="0"
     inkscape:window-width="1280"
     inkscape:window-height="975"
     inkscape:window-x="0"
     inkscape:window-y="0"
     inkscape:window-maximized="1" />
  <metadata
     id="metadata7">
    <rdf:RDF>
      <cc:Work
         rdf:about="">
        <dc:format>image/svg+xml</dc:format>
        <dc:type
           rdf:resource="http://purl.org/dc/dcmitype/StillImage" />
        <dc:title></dc:title>
      </cc:Work>
    </rdf:RDF>
  </metadata>
  <g
     inkscape:label="Layer 1"
     inkscape:groupmode="layer"
     id="layer1"
     transform="translate(164.3369,-75.431033)">
    <g
       id="g3008"
       transform="translate(66.056803,5.3038309)">
      <path
         style="fill:#fcfaf7"
         d="m -66.07143,433.80402 c -52.8362,-4.8441 -104.00585,-35.96935 -133.88968,-81.44184 -7.50857,-11.42535 -16.42163,-30.06094 -21.04439,-44 -7.22757,-21.79333 -11.10378,-51.80702 -8.65293,-67 0.3549,-2.2 1.34197,-8.725 2.1935,-14.5 1.76237,-11.95222 5.19054,-25.56242 8.97211,-35.6202 2.98204,-7.93129 10.55443,-24.6411 11.50137,-25.3798 0.35253,-0.275 1.41207,-2.00459 2.35454,-3.84353 8.50524,-16.59541 30.33748,-40.89927 49.06548,-54.62018 2.2,-1.61181 4.225,-3.18062 4.5,-3.48626 1.11913,-1.24379 12.03713,-8.050027 12.91319,-8.050027 0.51917,0 1.5386,-0.5625 2.26538,-1.25 3.38972,-3.206493 27.19841,-13.127002 39.82143,-16.592635 18.88908,-5.185971 51.92649,-9.476084 56.40133,-7.324061 1.15427,0.555107 5.58325,1.263717 9.84218,1.574689 19.42719,1.418501 47.51208,9.885966 65.75649,19.825274 37.73735,20.5588 66.93738,52.2349 82.96468,89.99982 21.12215,49.76984 19.3841,104.94873 -4.79231,152.14487 -6.96365,13.59413 -11.3297,20.30208 -21.23297,32.62204 -38.31221,47.66156 -97.46981,72.57746 -158.9394,66.94184 z"
         id="path3016"
         inkscape:connector-curvature="0" />
      <path
         style="fill:#f8e165"
         d="m -66.07143,433.80402 c -52.8362,-4.8441 -104.00585,-35.96935 -133.88968,-81.44184 -7.50857,-11.42535 -16.42163,-30.06094 -21.04439,-44 -7.22757,-21.79333 -11.10378,-51.80702 -8.65293,-67 0.3549,-2.2 1.34197,-8.725 2.1935,-14.5 1.76237,-11.95222 5.19054,-25.56242 8.97211,-35.6202 2.98204,-7.93129 10.55443,-24.6411 11.50137,-25.3798 0.35253,-0.275 1.41207,-2.00459 2.35454,-3.84353 8.50524,-16.59541 30.33748,-40.89927 49.06548,-54.62018 2.2,-1.61181 4.225,-3.18062 4.5,-3.48626 1.11913,-1.24379 12.03713,-8.050027 12.91319,-8.050027 0.51917,0 1.5386,-0.5625 2.26538,-1.25 3.38972,-3.206493 27.19841,-13.127002 39.82143,-16.592635 18.88908,-5.185971 51.92649,-9.476084 56.40133,-7.324061 1.15427,0.555107 5.58325,1.263717 9.84218,1.574689 19.42719,1.418501 47.51208,9.885966 65.75649,19.825274 37.73735,20.5588 66.93738,52.2349 82.96468,89.99982 21.12215,49.76984 19.3841,104.94873 -4.79231,152.14487 -6.96365,13.59413 -11.3297,20.30208 -21.23297,32.62204 -38.31221,47.66156 -97.46981,72.57746 -158.9394,66.94184 z m 46.5,-30.35928 c 22.05249,-4.00083 50.17887,-15.23855 69.81851,-27.89555 l 5.8185,-3.74981 -3.74165,-6.7186 c -2.0579,-3.69523 -4.50706,-8.0686 -5.44257,-9.7186 -9.92297,-17.50161 -13.18795,-23.11402 -13.81939,-23.75517 -0.40905,-0.41534 -7.01891,2.38796 -14.68857,6.22955 -26.05941,13.05269 -42.52614,17.37044 -66.44483,17.42254 -13.54554,0.0295 -17.01313,-0.32031 -27.5,-2.77431 -15.90685,-3.72232 -42.7621,-14.78467 -50.38486,-20.7548 l -2.38486,-1.86781 2.38486,-0.0911 c 1.31167,-0.0501 6.72447,-0.0156 12.02843,0.0767 5.30397,0.0923 9.8972,-0.24257 10.20719,-0.74413 0.30999,-0.50157 -3.19398,-3.00429 -7.7866,-5.5616 -14.81439,-8.2491 -30.73607,-21.42601 -40.71227,-33.69377 -5.04879,-6.20852 -13.05208,-18.63176 -15.29125,-23.7361 -1.02541,-2.3375 -2.17444,-4.25 -2.55338,-4.25 -0.73997,0 -1.97775,5.21215 -4.63085,19.5 -0.91916,4.95 -2.16737,9.53914 -2.77381,10.19809 -0.60643,0.65896 -4.7026,1.93655 -9.1026,2.8391 -4.4,0.90255 -8.16016,1.79857 -8.35591,1.99115 -0.74246,0.73044 3.42829,10.26292 7.6123,17.39833 5.23714,8.93139 10.17826,15.29261 18.9494,24.39554 6.20767,6.44249 18.69761,16.67779 20.35159,16.67779 0.41751,0 3.45866,-4.8375 6.7581,-10.75 7.29157,-13.06627 9.20799,-15.56374 11.03543,-14.38132 1.04826,0.67826 -1.23485,5.4266 -10.19064,21.19423 -6.34786,11.17608 -11.34841,20.63267 -11.11234,21.01465 0.83245,1.34692 21.06012,12.87938 29.59971,16.87576 15.85451,7.41964 36.69351,13.58356 54.30988,16.06419 9.12768,1.28531 37.76278,0.43003 48.04248,-1.43495 z m -39.40087,-5.98392 c -2.28046,-1.26377 -2.11388,-1.36635 3.32146,-2.04545 3.14728,-0.39323 7.31743,-1.38143 9.26699,-2.19601 l 3.54467,-1.48106 -2.33266,-2.483 c -1.83347,-1.95164 -2.10339,-2.84789 -1.26132,-4.18806 0.85639,-1.36296 3.21985,-1.82809 11.77975,-2.31827 11.83665,-0.67782 15.49558,-2.18375 8.42788,-3.46871 -2.39025,-0.43456 -5.01898,-0.66129 -5.84163,-0.50383 -1.11065,0.21258 -0.98259,-0.28073 0.49745,-1.91615 1.70359,-1.88245 2.64731,-2.10807 6.49572,-1.55295 2.47641,0.35721 6.86506,0.9089 9.75256,1.22599 3.51075,0.38553 5.25,1.03242 5.25,1.95269 0,1.68501 6.08022,1.89595 7.70873,0.26744 1.17074,-1.17074 -1.11721,-9.36998 -3.82415,-13.70448 -1.6764,-2.68434 -0.0483,-4.69092 3.01674,-3.71811 1.55674,0.49409 1.96069,1.23385 1.55588,2.84934 -0.30072,1.20009 0.14839,4.15106 0.99802,6.55771 1.90258,5.38921 1.98776,10.51174 0.19947,11.99589 -2.63013,2.18281 -7.57927,2.50661 -9.65131,0.63144 -1.85958,-1.6829 -2.31651,-1.64099 -10.72286,0.9836 -4.82929,1.50777 -11.36802,2.97758 -14.53052,3.26626 -3.81655,0.34837 -5.75,0.96671 -5.75,1.83892 0,2.7426 -2.4939,6.6122 -5.14503,7.98316 -3.42797,1.77267 -9.57914,1.78407 -12.75584,0.0236 z m 35.50624,-6.42815 c -0.87866,-1.4217 1.90526,-3.29551 3.81015,-2.56454 0.91795,0.35226 1.50224,1.14752 1.29842,1.76726 -0.47328,1.43899 -4.33909,2.04232 -5.10857,0.79728 z m -88.23302,-5.52663 -2.73918,-2.35615 7.63169,0.10615 c 8.91462,0.12398 10.4891,-0.7923 8.94965,-5.20837 -0.73394,-2.10537 -0.71196,-3.28804 0.0758,-4.07576 1.9646,-1.9646 3.63174,-1.19001 4.47941,2.08123 0.83925,3.23877 1.59014,3.66578 9.01535,5.12671 3.11302,0.6125 3.2701,0.50329 3,-2.08566 -0.22723,-2.178 0.17123,-2.79681 1.96497,-3.05156 1.91406,-0.27184 2.25,0.13875 2.25,2.75 0,6.2649 -5.11929,8.36726 -14.35774,5.89636 -3.983,-1.0653 -4.64054,-0.97332 -7.14921,1 -3.78409,2.97656 -9.54086,2.89629 -13.1207,-0.18295 z m 46.62765,-5.53308 c 0,-6.37782 0.37678,-8.34148 1.96673,-10.25 l 1.96673,-2.36078 0.001,8.5 c 10e-4,7.80745 -1.14992,12 -3.29517,12 -0.3514,0 -0.63929,-3.55015 -0.63929,-7.88922 z m 14.57003,-1.99747 c -0.30141,-0.48768 0.12204,-1.44278 0.94098,-2.12245 1.18204,-0.981 1.79594,-0.981 2.97798,0 1.81251,1.50425 1.06785,3.00914 -1.48899,3.00914 -1.03508,0 -2.12857,-0.39901 -2.42997,-0.88669 z m 62.72207,-2.11331 c -0.61345,-1.375 -2.28013,-5.10033 -3.70373,-8.27851 -2.67576,-5.97362 -3.22416,-9.21052 -1.71813,-10.1413 1.42324,-0.87961 7.28404,14.24607 6.88874,17.7786 l -0.35151,3.14121 -1.11537,-2.5 z m -96.82749,-8.11151 c -0.75855,-2.38998 1.67566,-5.53786 3.43943,-4.4478 1.91584,1.18406 1.18062,2.39009 -1.15404,1.89304 -2.01894,-0.42983 -1.94192,-0.21535 0.75,2.08865 l 3,2.56769 -2.68261,0.005 c -1.85416,0.003 -2.88958,-0.64711 -3.35278,-2.10654 z M 57.59031,351.7509 c 17.37966,-11.95752 38.13023,-38.25872 41.83716,-53.02831 0.63406,-2.52628 0.48224,-2.6094 -8.02876,-4.39548 -6.83706,-1.4348 -8.85665,-2.25955 -9.53226,-3.89272 -0.47147,-1.13972 -2.00117,-7.8855 -3.39932,-14.99064 -2.38596,-12.12501 -3.06988,-14.51376 -3.86466,-13.49824 -0.17935,0.22917 -1.81428,3.34167 -3.63317,6.91667 -7.09982,13.95455 -18.7957,28.42326 -31.22948,38.63327 -6.40858,5.26241 -9.31021,7.3431 -18.32775,13.14233 -1.09092,0.70159 -4.3374,2.41813 -7.21438,3.81456 -2.87698,1.39642 -5.46055,2.91056 -5.74125,3.36474 -0.84748,1.37126 5.64148,2.10373 16.89695,1.90733 5.85835,-0.10222 11.05183,0.22446 11.54107,0.72595 0.86953,0.89133 5.43298,8.65087 11.26924,19.16182 1.6033,2.8875 3.36271,5.25 3.9098,5.25 0.5471,0 3.02966,-1.40008 5.51681,-3.11128 z M -51.30542,252.11218 c 4.07617,-8.79333 6.23399,-17.27843 6.23399,-24.51366 l 0,-3.89634 5.87297,5.87297 c 12.38454,12.38454 31.93752,18.08448 36.76464,10.71735 2.63387,-4.01979 3.89519,-14.46356 2.59268,-21.46746 -1.30811,-7.03397 -6.69514,-18.33681 -10.60112,-22.24278 -1.44604,-1.44604 -2.62917,-3.01096 -2.62917,-3.47759 0,-0.46663 3.19535,-1.84667 7.10078,-3.06675 11.35284,-3.54671 19.7839,-9.92111 25.36266,-19.17574 5.95157,-9.87307 5.6478,-14.01087 -1.35303,-18.4303 -11.25762,-7.10662 -27.48724,-7.51924 -43.27001,-1.10009 -1.47397,0.59949 -1.69768,-0.53554 -2,-10.14731 -0.30411,-9.66861 -0.67494,-11.52837 -3.47861,-17.44567 -4.84095,-10.21714 -12.65251,-17.87663 -18.23154,-17.87663 -3.38237,0 -12.79983,9.57254 -16.0638,16.32831 -3.55464,7.3574 -5.4897,17.36705 -4.62453,23.92169 0.73584,5.57487 0.74313,5.57256 -8.44192,2.67048 -13.96017,-4.41083 -30.53886,-1.99357 -38.62384,5.63155 -3.2841,3.0973 -3.5447,3.73606 -2.90826,7.12855 2.28103,12.15894 15.26613,24.63319 30.0321,28.85059 3.3,0.94253 6.16284,1.85894 6.36186,2.03646 0.19902,0.17751 -1.22561,2.26005 -3.16585,4.62786 -9.1453,11.16063 -12.77625,25.65751 -9.5928,38.3001 1.69003,6.71174 3.47158,7.7952 12.09897,7.3581 11.66314,-0.59092 20.86016,-5.99779 31.2194,-18.35369 l 2.51522,-3 0.13756,4.5 c 0.32411,10.60229 -1.4723,18.36135 -6.21731,26.85383 -1.64524,2.9446 -2.75025,5.9821 -2.45558,6.75 1.23017,3.20576 3.53775,0.90154 7.36454,-7.35383 z m -29.74755,-25.72775 c -1.58596,-1.91097 3.88382,-11.33793 10.96264,-18.89369 8.30842,-8.86819 8.38896,-8.96122 10.2689,-11.85988 2.14676,-3.31007 2.21187,-5.14047 0.24105,-6.77611 -0.82992,-0.68877 -1.7854,-2.98116 -2.12329,-5.09419 -0.44034,-2.75374 -1.21668,-4.0177 -2.74105,-4.46269 -1.16969,-0.34145 -3.92671,-1.41623 -6.12671,-2.38839 -9.68823,-4.28117 -19.44853,-8.01944 -25,-9.57519 -3.3,-0.9248 -6.59576,-1.85799 -7.32391,-2.07376 -1.89406,-0.56125 -0.99808,-3.80895 1.16579,-4.22567 1.68203,-0.32393 9.46927,1.74712 14.15812,3.7654 1.1,0.47349 5.825,2.3036 10.5,4.06692 4.675,1.76331 9.96133,3.90377 11.7474,4.75658 3.22069,1.53781 3.27662,1.52049 6.79814,-2.10551 1.95291,-2.01083 4.1955,-3.65607 4.98355,-3.65607 1.75756,0 2.14026,-1.79378 3.09351,-14.5 1.0215,-13.61591 1.02386,-22.09999 0.008,-27.73847 -0.72012,-3.99588 -0.59382,-4.8383 0.80591,-5.37543 1.01684,-0.3902 2.24086,0.0896 3.15963,1.23848 1.25058,1.56382 1.45029,5.44769 1.20196,23.37542 l -0.2981,21.5 3.35692,1.67613 c 1.8463,0.92187 4.42307,2.67773 5.72615,3.90191 l 2.36925,2.22579 12.77384,-5.14815 c 13.16135,-5.30433 22.53894,-8.15568 26.82263,-8.15568 3.61541,0 3.3692,3.76091 -0.29879,4.56401 -6.05373,1.32546 -21.35977,6.5249 -27.6693,9.39923 -2.28255,1.03982 -5.38247,2.19989 -6.88872,2.57793 -3.32567,0.83469 -5.69198,3.97712 -5.69198,7.55889 0,1.46028 -0.675,3.21525 -1.5,3.89994 -1.92169,1.59486 -1.92169,4.40514 0,6 0.825,0.68469 1.51338,1.75229 1.52972,2.37244 0.0163,0.62016 2.73465,3.82756 6.04067,7.12756 7.02516,7.01237 15.31947,19.04165 14.53643,21.08224 -1.02263,2.66492 -4.6249,1.60061 -6.2014,-1.83224 -2.0185,-4.39534 -5.42716,-9.02842 -12.21368,-16.60094 -11.45349,-12.78 -10.64705,-12.14906 -15.52831,-12.14906 -4.08678,0 -4.75657,0.36192 -7.45148,4.02642 -1.62858,2.21454 -5.87183,7.08498 -9.42944,10.82321 -3.5576,3.73823 -7.77468,9.12064 -9.37128,11.96092 -3.18709,5.6697 -4.6828,6.77208 -6.39277,4.7117 z m 39.17682,-39.20934 c 4.83023,-4.62765 3.29449,-11.62476 -3.13604,-14.28837 -9.04159,-3.74515 -16.18654,7.05805 -9.37215,14.17074 3.62659,3.78534 8.6308,3.8324 12.50819,0.11763 z"
         id="path3014"
         inkscape:connector-curvature="0" />
      <path
         style="fill:#d63835"
         d="m -66.07143,433.80402 c -52.8362,-4.8441 -104.00585,-35.96935 -133.88968,-81.44184 -7.50857,-11.42535 -16.42163,-30.06094 -21.04439,-44 -7.22757,-21.79333 -11.10378,-51.80702 -8.65293,-67 0.3549,-2.2 1.34197,-8.725 2.1935,-14.5 1.76237,-11.95222 5.19054,-25.56242 8.97211,-35.6202 2.98204,-7.93129 10.55443,-24.6411 11.50137,-25.3798 0.35253,-0.275 1.41207,-2.00459 2.35454,-3.84353 8.50524,-16.59541 30.33748,-40.89927 49.06548,-54.62018 2.2,-1.61181 4.225,-3.18062 4.5,-3.48626 1.11913,-1.24379 12.03713,-8.050027 12.91319,-8.050027 0.51917,0 1.5386,-0.5625 2.26538,-1.25 3.38972,-3.206493 27.19841,-13.127002 39.82143,-16.592635 18.88908,-5.185971 51.92649,-9.476084 56.40133,-7.324061 1.15427,0.555107 5.58325,1.263717 9.84218,1.574689 19.42719,1.418501 47.51208,9.885966 65.75649,19.825274 37.73735,20.5588 66.93738,52.2349 82.96468,89.99982 21.12215,49.76984 19.3841,104.94873 -4.79231,152.14487 -6.96365,13.59413 -11.3297,20.30208 -21.23297,32.62204 -38.31221,47.66156 -97.46981,72.57746 -158.9394,66.94184 z m 46.5,-30.35928 c 22.05249,-4.00083 50.17887,-15.23855 69.81851,-27.89555 l 5.8185,-3.74981 -3.74165,-6.7186 c -2.0579,-3.69523 -4.50706,-8.0686 -5.44257,-9.7186 -9.92297,-17.50161 -13.18795,-23.11402 -13.81939,-23.75517 -0.40905,-0.41534 -7.01891,2.38796 -14.68857,6.22955 -26.05941,13.05269 -42.52614,17.37044 -66.44483,17.42254 -13.54554,0.0295 -17.01313,-0.32031 -27.5,-2.77431 -15.90685,-3.72232 -42.7621,-14.78467 -50.38486,-20.7548 l -2.38486,-1.86781 2.38486,-0.0911 c 1.31167,-0.0501 6.72447,-0.0156 12.02843,0.0767 5.30397,0.0923 9.8972,-0.24257 10.20719,-0.74413 0.30999,-0.50157 -3.19398,-3.00429 -7.7866,-5.5616 -14.81439,-8.2491 -30.73607,-21.42601 -40.71227,-33.69377 -5.04879,-6.20852 -13.05208,-18.63176 -15.29125,-23.7361 -1.02541,-2.3375 -2.17444,-4.25 -2.55338,-4.25 -0.73997,0 -1.97775,5.21215 -4.63085,19.5 -0.91916,4.95 -2.16737,9.53914 -2.77381,10.19809 -0.60643,0.65896 -4.7026,1.93655 -9.1026,2.8391 -4.4,0.90255 -8.16016,1.79857 -8.35591,1.99115 -0.74246,0.73044 3.42829,10.26292 7.6123,17.39833 5.23714,8.93139 10.17826,15.29261 18.9494,24.39554 6.20767,6.44249 18.69761,16.67779 20.35159,16.67779 0.41751,0 3.45866,-4.8375 6.7581,-10.75 7.29157,-13.06627 9.20799,-15.56374 11.03543,-14.38132 1.04826,0.67826 -1.23485,5.4266 -10.19064,21.19423 -6.34786,11.17608 -11.34841,20.63267 -11.11234,21.01465 0.83245,1.34692 21.06012,12.87938 29.59971,16.87576 15.85451,7.41964 36.69351,13.58356 54.30988,16.06419 9.12768,1.28531 37.76278,0.43003 48.04248,-1.43495 z m -39.40087,-5.98392 c -2.28046,-1.26377 -2.11388,-1.36635 3.32146,-2.04545 3.14728,-0.39323 7.31743,-1.38143 9.26699,-2.19601 l 3.54467,-1.48106 -2.33266,-2.483 c -1.83347,-1.95164 -2.10339,-2.84789 -1.26132,-4.18806 0.85639,-1.36296 3.21985,-1.82809 11.77975,-2.31827 11.83665,-0.67782 15.49558,-2.18375 8.42788,-3.46871 -2.39025,-0.43456 -5.01898,-0.66129 -5.84163,-0.50383 -1.11065,0.21258 -0.98259,-0.28073 0.49745,-1.91615 1.70359,-1.88245 2.64731,-2.10807 6.49572,-1.55295 2.47641,0.35721 6.86506,0.9089 9.75256,1.22599 3.51075,0.38553 5.25,1.03242 5.25,1.95269 0,1.68501 6.08022,1.89595 7.70873,0.26744 1.17074,-1.17074 -1.11721,-9.36998 -3.82415,-13.70448 -1.6764,-2.68434 -0.0483,-4.69092 3.01674,-3.71811 1.55674,0.49409 1.96069,1.23385 1.55588,2.84934 -0.30072,1.20009 0.14839,4.15106 0.99802,6.55771 1.90258,5.38921 1.98776,10.51174 0.19947,11.99589 -2.63013,2.18281 -7.57927,2.50661 -9.65131,0.63144 -1.85958,-1.6829 -2.31651,-1.64099 -10.72286,0.9836 -4.82929,1.50777 -11.36802,2.97758 -14.53052,3.26626 -3.81655,0.34837 -5.75,0.96671 -5.75,1.83892 0,2.7426 -2.4939,6.6122 -5.14503,7.98316 -3.42797,1.77267 -9.57914,1.78407 -12.75584,0.0236 z m 35.50624,-6.42815 c -0.87866,-1.4217 1.90526,-3.29551 3.81015,-2.56454 0.91795,0.35226 1.50224,1.14752 1.29842,1.76726 -0.47328,1.43899 -4.33909,2.04232 -5.10857,0.79728 z m -88.23302,-5.52663 -2.73918,-2.35615 7.63169,0.10615 c 8.91462,0.12398 10.4891,-0.7923 8.94965,-5.20837 -0.73394,-2.10537 -0.71196,-3.28804 0.0758,-4.07576 1.9646,-1.9646 3.63174,-1.19001 4.47941,2.08123 0.83925,3.23877 1.59014,3.66578 9.01535,5.12671 3.11302,0.6125 3.2701,0.50329 3,-2.08566 -0.22723,-2.178 0.17123,-2.79681 1.96497,-3.05156 1.91406,-0.27184 2.25,0.13875 2.25,2.75 0,6.2649 -5.11929,8.36726 -14.35774,5.89636 -3.983,-1.0653 -4.64054,-0.97332 -7.14921,1 -3.78409,2.97656 -9.54086,2.89629 -13.1207,-0.18295 z m 46.62765,-5.53308 c 0,-6.37782 0.37678,-8.34148 1.96673,-10.25 l 1.96673,-2.36078 0.001,8.5 c 10e-4,7.80745 -1.14992,12 -3.29517,12 -0.3514,0 -0.63929,-3.55015 -0.63929,-7.88922 z m 14.57003,-1.99747 c -0.30141,-0.48768 0.12204,-1.44278 0.94098,-2.12245 1.18204,-0.981 1.79594,-0.981 2.97798,0 1.81251,1.50425 1.06785,3.00914 -1.48899,3.00914 -1.03508,0 -2.12857,-0.39901 -2.42997,-0.88669 z m 62.72207,-2.11331 c -0.61345,-1.375 -2.28013,-5.10033 -3.70373,-8.27851 -2.67576,-5.97362 -3.22416,-9.21052 -1.71813,-10.1413 1.42324,-0.87961 7.28404,14.24607 6.88874,17.7786 l -0.35151,3.14121 -1.11537,-2.5 z m -96.82749,-8.11151 c -0.75855,-2.38998 1.67566,-5.53786 3.43943,-4.4478 1.91584,1.18406 1.18062,2.39009 -1.15404,1.89304 -2.01894,-0.42983 -1.94192,-0.21535 0.75,2.08865 l 3,2.56769 -2.68261,0.005 c -1.85416,0.003 -2.88958,-0.64711 -3.35278,-2.10654 z M 57.59031,351.7509 c 17.37966,-11.95752 38.13023,-38.25872 41.83716,-53.02831 0.63406,-2.52628 0.48224,-2.6094 -8.02876,-4.39548 -6.83706,-1.4348 -8.85665,-2.25955 -9.53226,-3.89272 -0.47147,-1.13972 -2.00117,-7.8855 -3.39932,-14.99064 -2.38596,-12.12501 -3.06988,-14.51376 -3.86466,-13.49824 -0.17935,0.22917 -1.81428,3.34167 -3.63317,6.91667 -7.09982,13.95455 -18.7957,28.42326 -31.22948,38.63327 -6.40858,5.26241 -9.31021,7.3431 -18.32775,13.14233 -1.09092,0.70159 -4.3374,2.41813 -7.21438,3.81456 -2.87698,1.39642 -5.46055,2.91056 -5.74125,3.36474 -0.84748,1.37126 5.64148,2.10373 16.89695,1.90733 5.85835,-0.10222 11.05183,0.22446 11.54107,0.72595 0.86953,0.89133 5.43298,8.65087 11.26924,19.16182 1.6033,2.8875 3.36271,5.25 3.9098,5.25 0.5471,0 3.02966,-1.40008 5.51681,-3.11128 z M -48.19976,305.75707 c 2.3616,-0.82326 3.52902,-0.80723 4.57739,0.0628 1.08696,0.9021 2.10644,0.80638 4.47911,-0.42057 2.81035,-1.45329 3.33651,-1.45164 6.18125,0.0194 3.01949,1.56144 3.19067,1.5301 5.91909,-1.0839 3.58017,-3.43001 4.40197,-6.73955 2.55864,-10.30414 -3.41703,-6.60781 -6.46279,-6.32088 -10.15039,0.95625 -2.12426,4.19209 -2.88849,4.87527 -5.45361,4.87527 -2.04069,0 -2.98315,-0.49466 -2.98315,-1.56574 0,-0.86116 -0.46889,-2.44188 -1.04199,-3.51271 -0.85045,-1.58909 -1.41369,-1.74804 -3.06418,-0.86473 -1.59878,0.85564 -1.88743,1.69584 -1.37856,4.01271 0.56299,2.56326 0.36161,2.93047 -1.60707,2.93047 -1.2379,0 -3.03622,-0.71087 -3.99627,-1.5797 -1.31116,-1.18658 -2.22374,-1.32379 -3.66707,-0.55135 -2.03185,1.08742 -6.24486,0.46492 -6.24486,-0.92271 0,-0.45127 -1.575,-0.56491 -3.5,-0.25253 l -3.5,0.56797 0,-4.57182 c 0,-5.30388 -0.83584,-6.19357 -3.84113,-4.08858 -1.6086,1.12671 -2.00922,2.14678 -1.55456,3.9583 0.75321,3.00103 0.0783,3.03027 -7.3168,0.31693 -7.42327,-2.72368 -7.95561,-3.25965 -6.30352,-6.34659 1.1689,-2.18411 1.1177,-2.76007 -0.39381,-4.43027 -2.58682,-2.8584 -6.46293,-3.52478 -8.70424,-1.49642 -1.42968,1.29384 -1.61137,2.02268 -0.75996,3.04856 1.37935,1.66202 0.73729,1.69867 -2.65794,0.1517 -2.16609,-0.98694 -2.51054,-1.64378 -1.96651,-3.75 1.29062,-4.99675 1.69477,-10.05349 0.80351,-10.05349 -1.6227,0 -3.30504,2.35077 -3.30504,4.61821 0,3.05351 -0.99909,5.38179 -2.30938,5.38179 -0.60247,0 -2.59896,-1.4573 -4.43663,-3.23844 -2.77972,-2.69422 -3.49937,-2.98831 -4.28229,-1.75 -0.51759,0.81864 -0.94797,2.23594 -0.95639,3.14955 -0.0186,2.02177 5.49015,6.83889 7.82087,6.83889 0.9255,0 2.21849,0.85789 2.87331,1.90642 0.7175,1.1489 3.2582,2.34985 6.39411,3.02238 3.44818,0.7395 6.45517,2.24673 8.91385,4.468 4.01152,3.62417 12.91119,7.11663 16.04599,6.29686 1.14298,-0.29889 2.29766,0.12917 2.80792,1.04096 0.58615,1.04738 1.7544,1.37891 3.60944,1.0243 1.50853,-0.28837 3.92998,0.1011 5.38099,0.8655 1.47066,0.77475 3.83833,1.13394 5.35001,0.81163 1.4915,-0.318 3.5165,-0.10989 4.5,0.46248 2.303,1.34025 3.30626,1.33974 7.15987,-0.004 z m 16.91466,-6.48709 c -1.73078,-0.91435 -2.50697,-1.97222 -2.14301,-2.9207 0.70209,-1.8296 1.45911,-1.8639 3.77429,-0.171 0.98993,0.72385 1.63844,2.03817 1.44113,2.9207 -0.319,1.42683 -0.65938,1.44578 -3.07241,0.171 z m 40.87885,-2.5679 c 2.62881,-2.54794 3.33482,-4.03754 3.33482,-7.03607 0,-2.97835 0.38571,-3.80383 1.77738,-3.80383 0.97756,0 3.9705,-1.92984 6.65097,-4.28853 4.60401,-4.05132 4.83551,-4.49142 4.18543,-7.95667 -0.7388,-3.93811 -4.5679,-7.7548 -7.78002,-7.7548 -2.68446,0 -3.23975,-2.31421 -1.40611,-5.86008 1.72669,-3.33906 2.00042,-5.13992 0.78126,-5.13992 -1.31867,0 -6.20891,10.51461 -6.20891,13.34991 0,2.44006 0.33683,2.65566 4.25,2.72038 2.3375,0.0386 5.05278,0.3874 6.03395,0.77499 1.68898,0.66719 1.68032,0.81595 -0.16271,2.79421 -1.07066,1.14922 -3.54285,3.07599 -5.49374,4.28171 -2.78036,1.71835 -3.97386,1.9638 -5.52154,1.13551 -2.8053,-1.50135 -3.10596,-1.36164 -3.10596,1.44329 0,1.375 0.92812,3.42812 2.0625,4.5625 2.6638,2.6638 2.15961,3.93775 -2.64024,6.67105 -5.09815,2.90317 -8.22858,2.90865 -9.3911,0.0164 -0.78941,-1.96396 -0.91245,-1.78235 -0.96777,1.42857 -0.13108,7.60705 7.04955,9.01202 13.60179,2.66133 z m -79.88131,-13.68516 c 2.06217,-1.30848 0.30639,-4.41161 -2.1349,-3.77319 -1.14137,0.29847 -2.77709,-0.0925 -3.63493,-0.86885 -1.98179,-1.79349 -4.56268,-0.38481 -3.65044,1.99244 0.46763,1.21864 1.33778,1.53564 3.04146,1.10804 1.61235,-0.40467 2.57224,-0.11471 2.9593,0.89394 0.64276,1.675 1.53425,1.84384 3.41951,0.64762 z m 72.21613,-5.15474 c 0,-2.7529 -2.0945,-3.59125 -3.6517,-1.46165 -1.78633,2.44295 -1.70063,3.235 0.4017,3.71239 2.40425,0.54595 3.25,-0.0398 3.25,-2.25074 z m -122.98014,-5.52394 c 1.28733,-1.55113 9.98014,-16.51679 9.98014,-17.18193 0,-0.20048 -0.8512,0.091 -1.89157,0.64784 -1.66747,0.8924 -11.10843,15.67704 -11.10843,17.39592 0,1.18911 1.72671,0.69633 3.01986,-0.86183 z m 69.74615,-20.22606 c 4.07617,-8.79333 6.23399,-17.27843 6.23399,-24.51366 l 0,-3.89634 5.87297,5.87297 c 12.38454,12.38454 31.93752,18.08448 36.76464,10.71735 2.63387,-4.01979 3.89519,-14.46356 2.59268,-21.46746 -1.30811,-7.03397 -6.69514,-18.33681 -10.60112,-22.24278 -1.44604,-1.44604 -2.62917,-3.01096 -2.62917,-3.47759 0,-0.46663 3.19535,-1.84667 7.10078,-3.06675 11.35284,-3.54671 19.7839,-9.92111 25.36266,-19.17574 5.95157,-9.87307 5.6478,-14.01087 -1.35303,-18.4303 -11.25762,-7.10662 -27.48724,-7.51924 -43.27001,-1.10009 -1.47397,0.59949 -1.69768,-0.53554 -2,-10.14731 -0.30411,-9.66861 -0.67494,-11.52837 -3.47861,-17.44567 -4.84095,-10.21714 -12.65251,-17.87663 -18.23154,-17.87663 -3.38237,0 -12.79983,9.57254 -16.0638,16.32831 -3.55464,7.3574 -5.4897,17.36705 -4.62453,23.92169 0.73584,5.57487 0.74313,5.57256 -8.44192,2.67048 -13.96017,-4.41083 -30.53886,-1.99357 -38.62384,5.63155 -3.2841,3.0973 -3.5447,3.73606 -2.90826,7.12855 2.28103,12.15894 15.26613,24.63319 30.0321,28.85059 3.3,0.94253 6.16284,1.85894 6.36186,2.03646 0.19902,0.17751 -1.22561,2.26005 -3.16585,4.62786 -9.1453,11.16063 -12.77625,25.65751 -9.5928,38.3001 1.69003,6.71174 3.47158,7.7952 12.09897,7.3581 11.66314,-0.59092 20.86016,-5.99779 31.2194,-18.35369 l 2.51522,-3 0.13756,4.5 c 0.32411,10.60229 -1.4723,18.36135 -6.21731,26.85383 -1.64524,2.9446 -2.75025,5.9821 -2.45558,6.75 1.23017,3.20576 3.53775,0.90154 7.36454,-7.35383 z"
         id="path3012"
         inkscape:connector-curvature="0" />
      <path
         style="fill:#2e9439"
         d="m -65.57143,316.27206 c -54.67612,-8.27974 -96.46416,-53.73875 -99.85922,-108.6316 -0.77191,-12.48046 0.84345,-28.80641 3.88635,-39.27828 2.28365,-7.85898 9.92875,-25.15697 13.69257,-30.98115 7.28048,-11.2659 19.38518,-24.51994 28.0303,-30.69178 4.35253,-3.10732 3.52362,0.1453 -1.65836,6.50738 -13.67207,16.78561 -21.62145,42.48059 -20.31527,65.66555 2.42116,42.97621 34.15315,81.19582 74.04135,89.17913 8.40503,1.6822 29.44546,2.13689 36.16821,0.7816 19.76743,-3.98505 35.59288,-12.55404 49.01407,-26.53959 8.33913,-8.6898 9.90913,-10.74474 15.28029,-20.00008 4.76325,-8.20783 8.5908,-17.92632 10.98488,-27.89161 3.52654,-14.67911 1.74983,-42.47823 -3.48511,-54.52945 -2.56046,-5.89438 -8.1602,-17.3857 -9.50237,-19.5 -1.98867,-3.1327 -9.15473,-11.96332 -10.00852,-12.33333 -1.12619,-0.48806 -0.94017,-3.16667 0.21991,-3.16667 3.44484,0 26.16721,23.59491 29.51363,30.64695 0.85294,1.79745 1.98995,3.5395 2.52668,3.87122 0.53673,0.33172 1.91785,2.71333 3.06916,5.29248 1.1513,2.57914 2.76075,6.03935 3.57654,7.68935 2.57479,5.20768 5.10187,12.71262 7.28288,21.62875 2.56926,10.50329 3.26984,37.8679 1.19999,46.87125 -2.01271,8.7548 -7.12665,23.90809 -10.28219,30.46749 -22.10657,45.95275 -72.74763,72.60913 -123.37577,64.94239 z m 17.37167,-10.51499 c 2.3616,-0.82326 3.52902,-0.80723 4.57739,0.0628 1.08696,0.9021 2.10644,0.80638 4.47911,-0.42057 2.81035,-1.45329 3.33651,-1.45164 6.18125,0.0194 3.01949,1.56144 3.19067,1.5301 5.91909,-1.0839 3.58017,-3.43001 4.40197,-6.73955 2.55864,-10.30414 -3.41703,-6.60781 -6.46279,-6.32088 -10.15039,0.95625 -2.12426,4.19209 -2.88849,4.87527 -5.45361,4.87527 -2.04069,0 -2.98315,-0.49466 -2.98315,-1.56574 0,-0.86116 -0.46889,-2.44188 -1.04199,-3.51271 -0.85045,-1.58909 -1.41369,-1.74804 -3.06418,-0.86473 -1.59878,0.85564 -1.88743,1.69584 -1.37856,4.01271 0.56299,2.56326 0.36161,2.93047 -1.60707,2.93047 -1.2379,0 -3.03622,-0.71087 -3.99627,-1.5797 -1.31116,-1.18658 -2.22374,-1.32379 -3.66707,-0.55135 -2.03185,1.08742 -6.24486,0.46492 -6.24486,-0.92271 0,-0.45127 -1.575,-0.56491 -3.5,-0.25253 l -3.5,0.56797 0,-4.57182 c 0,-5.30388 -0.83584,-6.19357 -3.84113,-4.08858 -1.6086,1.12671 -2.00922,2.14678 -1.55456,3.9583 0.75321,3.00103 0.0783,3.03027 -7.3168,0.31693 -7.42327,-2.72368 -7.95561,-3.25965 -6.30352,-6.34659 1.1689,-2.18411 1.1177,-2.76007 -0.39381,-4.43027 -2.58682,-2.8584 -6.46293,-3.52478 -8.70424,-1.49642 -1.42968,1.29384 -1.61137,2.02268 -0.75996,3.04856 1.37935,1.66202 0.73729,1.69867 -2.65794,0.1517 -2.16609,-0.98694 -2.51054,-1.64378 -1.96651,-3.75 1.29062,-4.99675 1.69477,-10.05349 0.80351,-10.05349 -1.6227,0 -3.30504,2.35077 -3.30504,4.61821 0,3.05351 -0.99909,5.38179 -2.30938,5.38179 -0.60247,0 -2.59896,-1.4573 -4.43663,-3.23844 -2.77972,-2.69422 -3.49937,-2.98831 -4.28229,-1.75 -0.51759,0.81864 -0.94797,2.23594 -0.95639,3.14955 -0.0186,2.02177 5.49015,6.83889 7.82087,6.83889 0.9255,0 2.21849,0.85789 2.87331,1.90642 0.7175,1.1489 3.2582,2.34985 6.39411,3.02238 3.44818,0.7395 6.45517,2.24673 8.91385,4.468 4.01152,3.62417 12.91119,7.11663 16.04599,6.29686 1.14298,-0.29889 2.29766,0.12917 2.80792,1.04096 0.58615,1.04738 1.7544,1.37891 3.60944,1.0243 1.50853,-0.28837 3.92998,0.1011 5.38099,0.8655 1.47066,0.77475 3.83833,1.13394 5.35001,0.81163 1.4915,-0.318 3.5165,-0.10989 4.5,0.46248 2.303,1.34025 3.30626,1.33974 7.15987,-0.004 z m 16.91466,-6.48709 c -1.73078,-0.91435 -2.50697,-1.97222 -2.14301,-2.9207 0.70209,-1.8296 1.45911,-1.8639 3.77429,-0.171 0.98993,0.72385 1.63844,2.03817 1.44113,2.9207 -0.319,1.42683 -0.65938,1.44578 -3.07241,0.171 z m 40.87885,-2.5679 c 2.62881,-2.54794 3.33482,-4.03754 3.33482,-7.03607 0,-2.97835 0.38571,-3.80383 1.77738,-3.80383 0.97756,0 3.9705,-1.92984 6.65097,-4.28853 4.60401,-4.05132 4.83551,-4.49142 4.18543,-7.95667 -0.7388,-3.93811 -4.5679,-7.7548 -7.78002,-7.7548 -2.68446,0 -3.23975,-2.31421 -1.40611,-5.86008 1.72669,-3.33906 2.00042,-5.13992 0.78126,-5.13992 -1.31867,0 -6.20891,10.51461 -6.20891,13.34991 0,2.44006 0.33683,2.65566 4.25,2.72038 2.3375,0.0386 5.05278,0.3874 6.03395,0.77499 1.68898,0.66719 1.68032,0.81595 -0.16271,2.79421 -1.07066,1.14922 -3.54285,3.07599 -5.49374,4.28171 -2.78036,1.71835 -3.97386,1.9638 -5.52154,1.13551 -2.8053,-1.50135 -3.10596,-1.36164 -3.10596,1.44329 0,1.375 0.92812,3.42812 2.0625,4.5625 2.6638,2.6638 2.15961,3.93775 -2.64024,6.67105 -5.09815,2.90317 -8.22858,2.90865 -9.3911,0.0164 -0.78941,-1.96396 -0.91245,-1.78235 -0.96777,1.42857 -0.13108,7.60705 7.04955,9.01202 13.60179,2.66133 z m -79.88131,-13.68516 c 2.06217,-1.30848 0.30639,-4.41161 -2.1349,-3.77319 -1.14137,0.29847 -2.77709,-0.0925 -3.63493,-0.86885 -1.98179,-1.79349 -4.56268,-0.38481 -3.65044,1.99244 0.46763,1.21864 1.33778,1.53564 3.04146,1.10804 1.61235,-0.40467 2.57224,-0.11471 2.9593,0.89394 0.64276,1.675 1.53425,1.84384 3.41951,0.64762 z m 72.21613,-5.15474 c 0,-2.7529 -2.0945,-3.59125 -3.6517,-1.46165 -1.78633,2.44295 -1.70063,3.235 0.4017,3.71239 2.40425,0.54595 3.25,-0.0398 3.25,-2.25074 z m -122.98014,-5.52394 c 1.28733,-1.55113 9.98014,-16.51679 9.98014,-17.18193 0,-0.20048 -0.8512,0.091 -1.89157,0.64784 -1.66747,0.8924 -11.10843,15.67704 -11.10843,17.39592 0,1.18911 1.72671,0.69633 3.01986,-0.86183 z"
         id="path3010"
         inkscape:connector-curvature="0" />
    </g>
  </g>
</svg>
